<svg xmlns="http://www.w3.org/2000/svg" viewBox="0 0 120 120" fill="none">
  <rect width="120" height="120" rx="60" fill="#111827"/>
  <circle cx="60" cy="60" r="58" stroke="#F7496D" stroke-opacity=".35" stroke-width="2"/>
  <path d="M77.1 42.4C74.8 39.2 70.5 37 65.2 37C56.5 37 50.2 42.1 50.2 49.4C50.2 56.4 55.5 59.8 62.8 62.1L68 63.8C74.1 65.8 76.4 67.9 76.4 71.6C76.4 76 72.1 79.1 65.9 79.1C60.6 79.1 55.6 76.5 52.8 72.6L47.6 77.6C51.2 82.8 58 86.5 65.9 86.5C76.7 86.5 84.2 80.5 84.2 71.2C84.2 63.6 79.3 59.6 71 56.9L65.8 55.2C60.5 53.5 58 51.6 58 48.4C58 44.8 61.4 42.2 66 42.2C70 42.2 73.1 43.8 75.4 46.6L77.1 42.4Z" fill="white"/>
</svg>
